<?xml version="1.0" encoding="utf-8"?>
<!-- Generator: Adobe Illustrator 24.3.0, SVG Export Plug-In . SVG Version: 6.00 Build 0)  -->
<svg version="1.1" id="Layer_2" xmlns="http://www.w3.org/2000/svg" xmlns:xlink="http://www.w3.org/1999/xlink" x="0px" y="0px"
	 viewBox="0 0 1203.12 488.16" style="enable-background:new 0 0 1203.12 488.16;" xml:space="preserve">
<style type="text/css">
	.st0{fill:#F99B25;}
	.st1{fill-rule:evenodd;clip-rule:evenodd;fill:#13469B;}
	.st2{fill:#E81E25;}
</style>
<g>
	<path class="st0" d="M300.78,269.03l54.49-111.48l-48.6,9.56c-13.11,20.97-42.62,52.47-63.8,148.63c0,0-4.01,34.74-32.06,16.44
		c-62.76-38.69-79.42-52.11-117.86-64.63c0,0,59.13-24.87,122.92,29.06c10.53-46.97,25.22-84.64,45.58-120.13l-27.81,5.61
		l-89.18-86.28l-14.24,123.26L20.6,277.23l112.83,51.63l21.44,122.22l83.97-91.34l122.86,17.38L300.78,269.03z M174.44,209.77
		c4.67-4.68,10.26-7.02,16.75-7.02c6.5,0,12.08,2.34,16.76,7.02c4.68,4.68,7.02,10.26,7.02,16.76c0,6.5-2.34,12.09-7.02,16.75
		c-4.68,4.68-10.26,7.01-16.76,7.01c-6.49,0-12.09-2.34-16.75-7.01c-4.68-4.67-7.02-10.25-7.02-16.75
		C167.42,220.03,169.76,214.45,174.44,209.77z"/>
	<path class="st0" d="M838.46,164.7c4.67,4.68,7.02,10.26,7.02,16.76c0,6.5-2.34,12.09-7.02,16.76c-4.68,4.68-10.26,7.01-16.76,7.01
		c-6.5,0-12.09-2.33-16.76-7.01c-4.68-4.67-7.01-10.26-7.01-16.76c0-6.5,2.34-12.08,7.01-16.76c4.67-4.67,10.26-7.02,16.76-7.02
		C828.19,157.68,833.78,160.02,838.46,164.7z"/>
	<path class="st0" d="M834.64,143.61c-32.06-10.75-43.9,17.3-43.9,17.3C616.37,0.76,435.62,75.1,352.8,125.12
		c-17.34,10.48-30.38,19.88-38.18,25.84l-43.81,8.55c8.59-8.07,17.13-15.69,25.63-22.91C586-109.19,819.14,126.88,834.64,143.61z"/>
	<g>
		<polygon class="st1" points="1047.4,214.88 1170.6,214.88 1098.18,342.85 1166.37,342.85 1166.37,377.43 1036.16,377.43 
			1108.59,249.47 1047.4,249.47 		"/>
		<rect x="802.08" y="214.88" class="st1" width="39.22" height="162.55"/>
		<polygon class="st1" points="725.92,157.23 766.47,157.23 766.47,214.88 790.52,214.88 790.52,250.11 766.47,250.11 
			766.47,377.43 725.92,377.43 725.92,250.11 705.23,250.11 705.23,214.88 725.92,214.88 		"/>
		<path class="st1" d="M447.03,214.88h41.48v18.97c7.11-7.66,14.99-13.44,23.69-17.23c8.67-3.81,18.17-5.71,28.46-5.71
			c10.38,0,19.72,2.52,28.03,7.53c8.35,4.99,15.07,12.34,20.14,21.92c6.61-9.58,14.72-16.93,24.33-21.92
			c9.61-5.01,20.11-7.53,31.49-7.53c11.8,0,22.21,2.69,31.15,8.05c8.92,5.38,15.35,12.42,19.28,21.06
			c3.92,8.65,5.88,22.71,5.88,42.22v95.19h-41.43v-82.15c0-18.33-2.35-30.76-7.08-37.26c-4.71-6.51-11.79-9.75-21.24-9.75
			c-7.16,0-13.61,1.96-19.31,5.94c-5.71,3.97-9.93,9.45-12.72,16.45c-2.77,6.99-4.1,18.22-4.1,33.7v73.08h-41.45v-78.43
			c0-14.5-1.09-24.98-3.32-31.48c-2.22-6.52-5.51-11.32-9.96-14.54c-4.35-3.15-9.67-4.72-15.92-4.72c-6.94,0-13.29,2.01-18.96,6.04
			c-5.69,4.01-9.94,9.64-12.73,16.86c-2.86,7.26-4.23,18.67-4.23,34.26v72.01h-41.48V214.88z"/>
		<rect x="387.36" y="157.66" class="st1" width="38.06" height="219.78"/>
		<path class="st1" d="M984.18,214.92v17.88c-7.34-7.29-15.27-12.75-23.84-16.39c-8.66-3.7-17.89-5.46-27.77-5.46
			c-21.31,0-39.45,8-54.4,23.99c-14.95,16-22.42,36.47-22.42,61.56c0,24.11,7.73,44.27,23.13,60.51
			c15.47,16.25,33.75,24.38,54.93,24.38c9.43,0,18.2-1.62,26.2-4.94c8.12-3.32,16.18-8.71,24.17-16.31v17.28h40.96v-162.5H984.18z
			 M938.68,341.86c-25.22,0-45.69-20.47-45.69-45.69c0-25.23,20.47-45.7,45.69-45.7c25.23,0,45.71,20.47,45.71,45.7
			C984.39,321.39,963.92,341.86,938.68,341.86z"/>
	</g>
</g>
<g>
	<path class="st2" d="M923.1,391.98h15.54l12.8,50.63l30.49-50.63h15.54l-12.02,68.22h-13.78l7.82-44.18l-26,44.18h-10.46
		l-10.46-44.27l-7.82,44.27h-13.78L923.1,391.98z"/>
	<path class="st2" d="M1042.83,402.63h-25.9l-3.13,17.69h22.97l-1.86,10.55h-22.97l-3.22,18.47h25.9l-1.96,10.85h-39.68l12.12-68.32
		h39.58L1042.83,402.63z"/>
	<path class="st2" d="M1082.8,391.1c15.24,0,26,7.72,28.05,21.4h-15.73c-2.15-5.77-7.23-8.8-14.47-8.8
		c-12.22,0-22.28,8.7-24.63,22.29c-2.54,13.88,4.5,22.48,17.3,22.48c10.46,0,18.47-6.06,22.19-15.83h-23.46l1.76-10.36h36.94
		l-2.15,11.92c-5.18,13.88-19.84,26.58-38.02,26.58c-19.84,0-32.25-14.37-28.63-34.79C1045.57,405.56,1063.06,391.1,1082.8,391.1z"
		/>
	<path class="st2" d="M1152.49,447.2h-27.27l-6.74,13h-14.37l36.65-68.32h15.93l12.41,68.32h-14.46L1152.49,447.2z M1145.85,407.62
		l-15.05,28.93h19.94L1145.85,407.62z"/>
</g>
</svg>
